<svg version="1.1" id="Layer_1" xmlns="http://www.w3.org/2000/svg" x="0" y="0" viewBox="0 0 243.5 132.4" xml:space="preserve"><style>.st73{fill:#f1f0f0}.st116{fill:#8cbf44}.st117{fill:#676767}.st118{fill:#066938}.st119{fill:#c3da94}</style><path d="M218.8 58.1c0 28.7-23.3 52-52 52s-52-23.3-52-52 23.3-52 52-52c28.7.1 52 23.3 52 52z" fill="#fff"/><path d="M166.6 13.8c25.5 0 47.3 18.7 52.1 42.9-.7-28-23.6-50.5-51.9-50.5-27.4 0-49.9 21.2-51.8 48.2 5.8-23.1 27-40.6 51.6-40.6z" fill="#e3e3e2"/><path class="st116" d="M166.8 6.7c28.4 0 51.4 23 51.4 51.4s-23 51.4-51.4 51.4-51.4-23-51.4-51.4 23-51.4 51.4-51.4m0-6.7c-32.1 0-58.1 26.1-58.1 58.1 0 32.1 26.1 58.1 58.1 58.1 32.1 0 58.1-26.1 58.1-58.1.1-32-26-58.1-58.1-58.1z"/><path class="st117" d="M167.4 101.2v-2h-1.3v2c-.9.3-1.5 1.1-1.5 2.1s.6 1.8 1.5 2.1v2h1.3v-2c.9-.3 1.5-1.1 1.5-2.1.1-1-.6-1.8-1.5-2.1zm.1-90.6V8.5h-1.3v2.2c-.9.3-1.5 1.1-1.5 2.1s.7 1.8 1.5 2.1v1.8h1.3v-1.8c.9-.3 1.5-1.1 1.5-2.1 0-1.1-.6-1.9-1.5-2.2z"/><path transform="rotate(-30 189.483 97.218)" class="st117" d="M188.8 93.1h1.3v8.1h-1.3z"/><path transform="rotate(-59.994 206.094 80.606)" class="st117" d="M205.4 76.5h1.3v8.1h-1.3z"/><path class="st117" d="M216.2 57.3h-2.1c-.3-.8-1.1-1.4-2.1-1.4-.9 0-1.7.6-2.1 1.4H208v1.3h1.9c.3.9 1.1 1.6 2.1 1.6s1.9-.7 2.1-1.6h2.1v-1.3z"/><path transform="rotate(-30.037 206.113 35.23)" class="st117" d="M202.1 34.6h8.1v1.3h-8.1z"/><path transform="rotate(-59.987 189.527 18.619)" class="st117" d="M185.5 18h8.1v1.3h-8.1z"/><path transform="rotate(-30 144.132 18.609)" class="st117" d="M143.5 14.5h1.3v8.1h-1.3z"/><path transform="rotate(-60.02 127.534 35.199)" class="st117" d="M126.9 31.1h1.3v8.1h-1.3z"/><path class="st117" d="M125.5 58.5v-1.3h-1.9c-.3-.8-1.1-1.4-2-1.4-.9 0-1.7.6-2.1 1.4h-2.1v1.3h2c.2.9 1.1 1.6 2.1 1.6s1.9-.7 2.1-1.6h1.9z"/><path transform="rotate(-29.988 127.519 80.576)" class="st117" d="M123.4 79.9h8.1v1.3h-8.1z"/><path transform="rotate(-59.96 144.11 97.183)" class="st117" d="M140 96.5h8.1v1.3H140z"/><path class="st118" d="M166.8 0v6.7c28.4 0 51.4 23 51.4 51.4s-23 51.4-51.4 51.4v6.7c32.1 0 58.1-26.1 58.1-58.1.1-32-26-58.1-58.1-58.1z"/><path class="st119" d="M165.4 56.7c-.8.8-.8 2.1 0 2.9l19.1 19.1c.4.4.9.6 1.4.6.5 0 1-.2 1.4-.6.8-.8.8-2.1 0-2.9l-19.1-19.1c-.8-.8-2.1-.8-2.8 0zm21.4 21.5c-.5.5-1.4.5-2 0-.5-.5-.5-1.4 0-2 .5-.5 1.4-.5 2 0 .5.5.5 1.4 0 2z"/><path class="st116" d="M185.9 79.3c.5 0 1-.2 1.4-.6.2-.2.3-.4.4-.7l-.6-.6c0 .3-.1.6-.4.8-.5.5-1.4.5-2 0-.5-.5-.5-1.4 0-2 .2-.2.5-.3.8-.4L166 56.2c-.2.1-.5.2-.7.4-.8.8-.8 2.1 0 2.9l19.1 19.1c.5.5 1 .7 1.5.7z"/><path class="st118" d="M185.9 79.3c.3 0 .6-.1.8-.2l-.6-.6c-.5.1-.9 0-1.3-.3-.4-.4-.5-.9-.3-1.3l-19.6-19.6c-.3.7-.2 1.6.4 2.3l19.1 19.1c.5.4 1 .6 1.5.6z"/><path class="st119" d="M166.8 60.2c1.1 0 2-.9 2-2V9.5c0-1.1-.9-2-2-2s-2 .9-2 2v48.6c0 1.2.9 2.1 2 2.1zm0-51.8c.8 0 1.4.6 1.4 1.4 0 .8-.6 1.4-1.4 1.4-.8 0-1.4-.6-1.4-1.4 0-.8.6-1.4 1.4-1.4z"/><path class="st116" d="M166.8 7.5c-.3 0-.5.1-.7.1v.9c.2-.1.4-.2.7-.2.8 0 1.4.6 1.4 1.4 0 .8-.6 1.4-1.4 1.4-.3 0-.5-.1-.7-.2V60c.2.1.5.1.7.1 1.1 0 2-.9 2-2V9.5c0-1.1-.9-2-2-2z"/><path class="st118" d="M167.8 7.8v1c.3.3.4.6.4 1s-.2.7-.4 1V60c.6-.3 1.1-1 1.1-1.8V9.5c-.1-.7-.5-1.4-1.1-1.7z"/><path d="M169 58c0 1.2-1 2.2-2.2 2.2-1.2 0-2.2-1-2.2-2.2 0-1.2 1-2.2 2.2-2.2 1.2 0 2.2 1 2.2 2.2z" fill="#f29222"/><path class="st116" d="M169 57.7c0 1.2-1 2.2-2.2 2.2-1.2 0-2.2-1-2.2-2.2 0-1.2 1-2.2 2.2-2.2 1.2.1 2.2 1 2.2 2.2z"/><path class="st118" d="M150.2 110.3c0 12.2-9.9 22.1-22.1 22.1-12.2 0-22.1-9.9-22.1-22.1 0-12.2 9.9-22.1 22.1-22.1 12.2.1 22.1 10 22.1 22.1z"/><g><path class="st73" d="M128 121.4h-13.5l8.8-10.2c1.4-1.6 3.1-3.6 3.1-5.9 0-3.3-2.9-5-5.5-5-2.2 0-4.1 1-5.1 3.1l-.8-.4c1.2-2.5 3.4-3.6 5.9-3.6 3.1 0 6.4 2 6.4 5.8 0 2.7-1.8 4.9-3.5 6.8l-7.5 8.5H128v.9zm13.2-4h-2.6v4h-.9v-4h-9.8l10.7-18.7v17.8h2.6v.9zm-3.5-.9v-14.3l-8.2 14.3h8.2z"/></g><circle transform="matrix(.00633 -1 1 .00633 116.46 306.357)" class="st116" cx="212.4" cy="94.6" r="31.1"/><g><path class="st73" d="M203.6 79.8h17.7L211 110.4l-1.3-.3 9.7-29h-15.9v-1.3z"/></g><g><path d="M0 72.3V37.8h7.7v30.6h11.5v3.8H0zm46.1-11.5H30.8v3.8c0 1 .4 1.9 1.1 2.7.8.8 1.6 1.1 2.7 1.1h3.9c2.5 0 3.8-1.3 3.8-3.9h3.8c-.6 5.1-3.1 7.7-7.6 7.7h-7.7c-2.1 0-3.9-.8-5.4-2.3-1.5-1.5-2.3-3.3-2.3-5.4V53.1c0-2.1.8-3.9 2.3-5.4 1.5-1.5 3.3-2.2 5.4-2.2h7.7c2.1 0 3.9.8 5.4 2.2 1.5 1.5 2.2 3.3 2.2 5.4v7.7zM30.8 57h7.7v-3.9c0-1-.4-1.9-1.1-2.7-.8-.8-1.7-1.1-2.7-1.1-1 0-1.9.4-2.7 1.1-.8.8-1.1 1.6-1.1 2.7V57zm23.1-19.2h7.6v7.7h3.9v3.8h-3.9v15.3c0 1.3.4 2.2 1.2 2.9.8.7 1.6 1 2.2 1h.4v3.8h-3.9c-2.1 0-3.9-.8-5.4-2.3-1.5-1.5-2.3-3.3-2.3-5.4V49.3h-3.9v-3.8h3.9v-7.7zm15.5 0H77v7.7c0 4.5-2.6 7-7.7 7.6v-3.8c2.5-.1 3.8-1.4 3.9-3.8h-3.9v-7.7zm30.7 15.3h-3.8c-.3-2.5-1.5-3.8-3.6-3.8-1.3 0-2.4.3-3 .8s-1 1.3-1 2.4c0 1.1 1.9 2.6 5.6 4.6 3 1.6 4.8 3 5.2 4s.7 2.2.7 3.4c0 2.1-.8 3.9-2.2 5.4-1.5 1.5-3.3 2.3-5.4 2.3h-3.8c-5.1 0-7.7-2.6-7.7-7.7H85c.3 2.6 1.5 3.9 3.6 3.9 1.4 0 2.4-.3 3.1-.8.7-.5 1-1.3 1-2.4s-1.9-2.6-5.6-4.6c-3-1.6-4.8-3-5.3-4-.5-1.1-.7-2.2-.7-3.4 0-2.1.8-3.9 2.3-5.4 1.5-1.5 3.3-2.2 5.4-2.2h3.8c4.7-.1 7.2 2.4 7.5 7.5zM23 104.2c-.3 5.1-2.8 7.7-7.6 7.7H7.7c-2.1 0-3.9-.8-5.4-2.3-1.5-1.5-2.3-3.3-2.3-5.4V85.1c0-2.1.7-3.9 2.2-5.4s3.3-2.3 5.4-2.3h7.7c4.8 0 7.3 2.6 7.6 7.7h-3.8c-.3-2.6-1.6-3.9-3.8-3.9h-3.9c-1 0-1.9.4-2.7 1.1-.7.8-1 1.7-1 2.8v19.1c0 1 .4 1.9 1.1 2.7.8.8 1.6 1.1 2.7 1.1h3.9c2.3 0 3.5-1.3 3.8-3.9H23zm4 7.7V77.4h7.7v11.5c.2-1.3.6-2.2 1.2-2.9.6-.6 1.5-.9 2.6-.9h3.9c2.1 0 3.9.8 5.4 2.2 1.5 1.5 2.2 3.3 2.2 5.4v19.2h-7.6V92.7c0-1-.4-1.9-1.1-2.7-.8-.8-1.7-1.1-2.7-1.1-1 0-1.9.4-2.7 1.1-.8.8-1.1 1.6-1.1 2.7v19.2H27zm42.3-15.3v-3.9c0-1-.4-1.9-1.1-2.7-.8-.8-1.7-1.1-2.7-1.1h-3.8c-2.3 0-3.5 1.3-3.8 3.8H54c.6-5.1 3.2-7.6 7.7-7.6h7.7c2.1 0 3.9.8 5.4 2.2 1.5 1.5 2.2 3.3 2.2 5.4v19.2h-7.6V108c-.3 2.5-1.6 3.8-3.9 3.8h-3.8c-2.1 0-3.9-.8-5.4-2.3-1.5-1.5-2.3-3.3-2.3-5.4 0-2.1.8-3.9 2.3-5.4 1.5-1.5 3.3-2.3 5.4-2.3h7.6zm0 3.8h-3.9c-1 0-1.9.4-2.7 1.1-.8.8-1.1 1.6-1.1 2.7 0 1 .4 1.9 1.1 2.7.8.8 1.6 1.1 2.7 1.1s2-.4 2.7-1.1c.8-.8 1.1-1.7 1.1-2.7v-3.8zm15.4-23h7.6v7.7h3.9v3.8h-3.9v15.3c0 1.3.4 2.2 1.2 2.9.8.7 1.6 1 2.2 1h.4v3.8h-3.9c-2.1 0-3.9-.8-5.4-2.3-1.5-1.5-2.3-3.3-2.3-5.4V88.9h-3.9v-3.8h3.9v-7.7z" fill="#868686"/></g></svg>